<svg width="35" height="35" viewBox="0 0 35 35" fill="none" xmlns="http://www.w3.org/2000/svg">
<path d="M33.625 11.97C32.7465 9.64123 31.473 7.52547 29.875 5.74C28.2808 3.95022 26.3918 2.52387 24.3125 1.54C22.1523 0.51625 19.8633 0 17.5 0C15.1367 0 12.8477 0.51625 10.6875 1.54C8.60824 2.52387 6.71917 3.95022 5.125 5.74C3.52699 7.52547 2.25345 9.64123 1.375 11.97C0.460937 14.3894 0 16.9531 0 19.6C0 25.4056 2.27734 30.8744 6.24609 34.6106L6.3125 34.6719C6.53906 34.8819 6.82422 35 7.11719 35H27.8867C28.1797 35 28.4648 34.8819 28.6914 34.6719L28.7578 34.6106C32.7227 30.8744 35 25.4056 35 19.6C35 16.9531 34.5352 14.3894 33.625 11.97ZM27.2422 31.675H7.75781C6.24842 30.1507 5.04206 28.288 4.21702 26.2078C3.39197 24.1275 2.96668 21.8762 2.96875 19.6C2.96875 15.2512 4.48047 11.165 7.22656 8.09375C9.97266 5.01812 13.6211 3.325 17.5 3.325C21.3828 3.325 25.0313 5.01812 27.7734 8.09375C30.5195 11.1694 32.0312 15.2556 32.0312 19.6C32.0312 24.22 30.293 28.5906 27.2422 31.675ZM21.8555 13.5406C21.7967 13.4755 21.7174 13.4389 21.6348 13.4389C21.5521 13.4389 21.4728 13.4755 21.4141 13.5406L18.1133 17.2375C17.3828 17.0187 16.5742 17.2287 16 17.8719C15.7966 18.0992 15.6353 18.3693 15.5252 18.6666C15.4151 18.9639 15.3584 19.2825 15.3584 19.6044C15.3584 19.9262 15.4151 20.2449 15.5252 20.5422C15.6353 20.8395 15.7966 21.1095 16 21.3369C16.203 21.5647 16.4441 21.7454 16.7095 21.8687C16.975 21.992 17.2595 22.0555 17.5469 22.0555C17.8342 22.0555 18.1188 21.992 18.3842 21.8687C18.6496 21.7454 18.8907 21.5647 19.0937 21.3369C19.3658 21.0331 19.5614 20.6543 19.6609 20.2387C19.7603 19.8231 19.7601 19.3854 19.6602 18.97L22.9609 15.2731C23.082 15.1375 23.082 14.9144 22.9609 14.7787L21.8555 13.5406V13.5406ZM16.6406 9.1H18.3594C18.5313 9.1 18.6719 8.9425 18.6719 8.75V5.25C18.6719 5.0575 18.5313 4.9 18.3594 4.9H16.6406C16.4687 4.9 16.3281 5.0575 16.3281 5.25V8.75C16.3281 8.9425 16.4687 9.1 16.6406 9.1ZM26.7969 18.6375V20.5625C26.7969 20.755 26.9375 20.9125 27.1094 20.9125H30.2344C30.4063 20.9125 30.5469 20.755 30.5469 20.5625V18.6375C30.5469 18.445 30.4063 18.2875 30.2344 18.2875H27.1094C26.9375 18.2875 26.7969 18.445 26.7969 18.6375ZM27.293 10.01L26.0781 8.64938C26.0194 8.58424 25.9401 8.5477 25.8574 8.5477C25.7748 8.5477 25.6955 8.58424 25.6367 8.64938L23.4258 11.1256C23.3676 11.1914 23.335 11.2802 23.335 11.3728C23.335 11.4654 23.3676 11.5542 23.4258 11.62L24.6406 12.9806C24.7617 13.1163 24.9609 13.1163 25.082 12.9806L27.293 10.5044C27.4141 10.3688 27.4141 10.1456 27.293 10.01ZM9.37891 8.64938C9.32017 8.58424 9.24086 8.5477 9.1582 8.5477C9.07555 8.5477 8.99623 8.58424 8.9375 8.64938L7.72266 10.01C7.6645 10.0758 7.63188 10.1646 7.63188 10.2572C7.63188 10.3498 7.6645 10.4386 7.72266 10.5044L9.93359 12.9806C10.0547 13.1163 10.2539 13.1163 10.375 12.9806L11.5898 11.62C11.7109 11.4844 11.7109 11.2612 11.5898 11.1256L9.37891 8.64938ZM7.73438 18.2875H4.60938C4.4375 18.2875 4.29688 18.445 4.29688 18.6375V20.5625C4.29688 20.755 4.4375 20.9125 4.60938 20.9125H7.73438C7.90625 20.9125 8.04688 20.755 8.04688 20.5625V18.6375C8.04688 18.445 7.90625 18.2875 7.73438 18.2875Z" fill="#54AFE6"/>
</svg>
