<svg width="35" height="35" viewBox="0 0 35 35" fill="none" xmlns="http://www.w3.org/2000/svg">
<path d="M34.4595 12.5851L18.2679 0.263125C18.0449 0.0921657 17.7756 0 17.4992 0C17.2227 0 16.9535 0.0921657 16.7305 0.263125L0.53885 12.5851C0.31525 12.7552 0.148904 12.9951 0.0636906 13.2703C-0.0215229 13.5454 -0.0212221 13.8418 0.06455 14.1168L6.25089 34.0545C6.33629 34.3291 6.5025 34.5685 6.72575 34.7383C6.94901 34.9081 7.21787 34.9997 7.49389 35H27.5085C28.0769 35 28.5757 34.6192 28.7515 34.0545L34.9379 14.1168C35.1096 13.552 34.9174 12.9359 34.4595 12.5851V12.5851ZM30.8532 13.4365L26.8257 14.8056L18.6481 8.61469V4.14797L30.8532 13.4365ZM15.6183 19.8628L11.9752 25.0953L9.71819 17.8562L15.6183 19.8628ZM10.8631 15.7212L16.3543 11.5668V17.5909L10.8631 15.7212ZM17.4992 21.2319L21.3385 26.7468H13.6598L17.4992 21.2319ZM18.6481 11.5668L24.1353 15.7212L18.6481 17.5866V11.5668V11.5668ZM19.38 19.8628L25.2801 17.8562L23.0231 25.0953L19.38 19.8628ZM16.3543 4.14797V8.61469L8.17263 14.8056L4.14517 13.4365L16.3543 4.14797V4.14797ZM3.48687 15.7383L7.02368 16.9406L10.3111 27.4827L8.11129 30.6445L3.48687 15.7383V15.7383ZM9.93899 32.0906L11.9956 29.1385H23.0068L25.0634 32.0906H9.93899ZM26.887 30.6445L24.6873 27.4827L27.9747 16.9406L31.5115 15.7383L26.887 30.6445Z" fill="#54AFE6"/>
</svg>
