<svg width="35" height="35" viewBox="0 0 35 35" fill="none" xmlns="http://www.w3.org/2000/svg">
<path d="M34.6354 31.4205H3.28125V0.397727C3.28125 0.178977 3.11719 0 2.91667 0H0.364583C0.164063 0 0 0.178977 0 0.397727V34.6023C0 34.821 0.164063 35 0.364583 35H34.6354C34.8359 35 35 34.821 35 34.6023V31.8182C35 31.5994 34.8359 31.4205 34.6354 31.4205ZM7.29167 27.4432H9.84375C10.0443 27.4432 10.2083 27.2642 10.2083 27.0455V19.8864C10.2083 19.6676 10.0443 19.4886 9.84375 19.4886H7.29167C7.09115 19.4886 6.92708 19.6676 6.92708 19.8864V27.0455C6.92708 27.2642 7.09115 27.4432 7.29167 27.4432ZM14.2188 27.4432H16.7708C16.9714 27.4432 17.1354 27.2642 17.1354 27.0455V11.1364C17.1354 10.9176 16.9714 10.7386 16.7708 10.7386H14.2188C14.0182 10.7386 13.8542 10.9176 13.8542 11.1364V27.0455C13.8542 27.2642 14.0182 27.4432 14.2188 27.4432ZM21.1458 27.4432H23.6979C23.8984 27.4432 24.0625 27.2642 24.0625 27.0455V15.0142C24.0625 14.7955 23.8984 14.6165 23.6979 14.6165H21.1458C20.9453 14.6165 20.7813 14.7955 20.7813 15.0142V27.0455C20.7813 27.2642 20.9453 27.4432 21.1458 27.4432ZM28.0729 27.4432H30.625C30.8255 27.4432 30.9896 27.2642 30.9896 27.0455V7.15909C30.9896 6.94034 30.8255 6.76136 30.625 6.76136H28.0729C27.8724 6.76136 27.7083 6.94034 27.7083 7.15909V27.0455C27.7083 27.2642 27.8724 27.4432 28.0729 27.4432Z" fill="#54AFE6"/>
</svg>
