<svg width="35" height="35" viewBox="0 0 35 35" fill="none" xmlns="http://www.w3.org/2000/svg">
<path d="M15.2174 0H0.76087C0.342391 0 0 0.342391 0 0.76087V15.2174C0 15.6359 0.342391 15.9783 0.76087 15.9783H15.2174C15.6359 15.9783 15.9783 15.6359 15.9783 15.2174V0.76087C15.9783 0.342391 15.6359 0 15.2174 0ZM12.7446 12.7446H3.2337V3.2337H12.7446V12.7446ZM34.2391 0H19.7826C19.3641 0 19.0217 0.342391 19.0217 0.76087V15.2174C19.0217 15.6359 19.3641 15.9783 19.7826 15.9783H34.2391C34.6576 15.9783 35 15.6359 35 15.2174V0.76087C35 0.342391 34.6576 0 34.2391 0ZM31.7663 12.7446H22.2554V3.2337H31.7663V12.7446ZM15.2174 19.0217H0.76087C0.342391 19.0217 0 19.3641 0 19.7826V34.2391C0 34.6576 0.342391 35 0.76087 35H15.2174C15.6359 35 15.9783 34.6576 15.9783 34.2391V19.7826C15.9783 19.3641 15.6359 19.0217 15.2174 19.0217ZM12.7446 31.7663H3.2337V22.2554H12.7446V31.7663ZM34.2391 19.0217H19.7826C19.3641 19.0217 19.0217 19.3641 19.0217 19.7826V34.2391C19.0217 34.6576 19.3641 35 19.7826 35H34.2391C34.6576 35 35 34.6576 35 34.2391V19.7826C35 19.3641 34.6576 19.0217 34.2391 19.0217ZM31.7663 31.7663H22.2554V22.2554H31.7663V31.7663Z" fill="#54AFE6"/>
</svg>
