<svg width="35" height="35" viewBox="0 0 35 35" fill="none" xmlns="http://www.w3.org/2000/svg">
<path d="M34.6694 22.4723C34.8512 22.4723 35 22.2933 35 22.0746V19.2906C35 19.0719 34.8512 18.8929 34.6694 18.8929H7.64463C7.05785 17.143 5.63223 15.9101 3.96694 15.9101C1.77686 15.9101 0 18.0478 0 20.6826C0 23.3174 1.77686 25.4551 3.96694 25.4551C5.63223 25.4551 7.05785 24.2222 7.64463 22.4723H13.8554V30.0287C13.8554 32.7728 15.7066 35 17.9876 35H34.6694C34.8512 35 35 34.821 35 34.6023V31.8184C35 31.5996 34.8512 31.4207 34.6694 31.4207H17.9876C17.3471 31.4207 16.8306 30.7992 16.8306 30.0287V22.4723H34.6694ZM14.1736 9.14914H25.0826V14.031C25.0826 14.4337 25.4752 14.6673 25.7355 14.4138L32.8636 7.64283C33.0702 7.44895 33.0702 7.0761 32.8636 6.88222L25.7355 0.106311C25.4711 -0.147227 25.0826 0.0814539 25.0826 0.489102V5.37094H14.1736C13.9917 5.37094 13.843 5.54991 13.843 5.76864V8.75143C13.843 8.97017 13.9917 9.14914 14.1736 9.14914Z" fill="#54AFE6"/>
</svg>
