<svg width="35" height="35" viewBox="0 0 35 35" fill="none" xmlns="http://www.w3.org/2000/svg">
<path d="M35 26.6589C35 22.0958 31.7486 18.1542 27.0455 16.3183V9.53914C27.0455 8.92173 26.782 8.32477 26.2947 7.85456L18.718 0.466122C18.3999 0.155374 17.9474 0 17.5 0C17.0526 0 16.6001 0.155374 16.282 0.466122L8.70526 7.85456C8.22135 8.32573 7.95546 8.92238 7.95455 9.53914V16.3183C3.25142 18.1542 0 22.0958 0 26.6589H7.78054C7.66619 26.9533 7.60653 27.2722 7.60653 27.632C7.60653 28.5356 7.98437 29.4188 8.67045 30.118C9.23046 30.6898 9.97214 31.1229 10.8132 31.3692C11.9616 33.5771 14.5717 35 17.5 35C18.9467 35 20.3487 34.6484 21.5469 33.986C22.7202 33.34 23.63 32.4363 24.1818 31.3692C25.0225 31.1244 25.7643 30.6927 26.3246 30.1221C27.0116 29.4165 27.3867 28.54 27.3885 27.6361C27.3885 27.2926 27.3338 26.9655 27.2344 26.663H35V26.6589ZM29.9439 21.9731C30.4112 22.5701 30.7891 23.212 31.0625 23.8785H26.8466V19.4095C28.087 20.0752 29.1424 20.9488 29.9439 21.9731V21.9731ZM11.3352 16.3183V9.60047L17.5 3.58995L23.6648 9.60047V23.8785H11.3352V16.3183ZM3.9375 23.8785C4.21094 23.212 4.58878 22.5701 5.05611 21.9731C5.86648 20.9428 6.92045 20.0718 8.15341 19.4095V23.8785H3.9375ZM23.272 28.6297C23.0135 28.7523 22.7152 28.8014 22.4219 28.7687L21.4524 28.6706L21.3132 29.4638C21.0447 31.0134 19.4041 32.1828 17.5 32.1828C15.5959 32.1828 13.9553 31.0134 13.6868 29.4638L13.5476 28.6665L12.5781 28.7687C12.2834 28.7976 11.9852 28.7474 11.728 28.6256C11.2955 28.4211 11.027 28.0409 11.027 27.6279C11.027 27.1945 11.3203 26.8347 11.7528 26.6548H23.2521C23.6896 26.8388 23.978 27.1986 23.978 27.6279C23.973 28.045 23.7045 28.4293 23.272 28.6297ZM15.1136 12.9206C15.1136 13.4411 15.3651 13.9403 15.8126 14.3083C16.2601 14.6764 16.8671 14.8832 17.5 14.8832C18.1329 14.8832 18.7399 14.6764 19.1874 14.3083C19.6349 13.9403 19.8864 13.4411 19.8864 12.9206C19.8864 12.4 19.6349 11.9008 19.1874 11.5328C18.7399 11.1647 18.1329 10.9579 17.5 10.9579C16.8671 10.9579 16.2601 11.1647 15.8126 11.5328C15.3651 11.9008 15.1136 12.4 15.1136 12.9206V12.9206Z" fill="#54AFE6"/>
</svg>
