<svg xmlns="http://www.w3.org/2000/svg" width="80" height="80" fill="none" viewBox="0 0 80 80"><mask id="mask0_212:2" width="80" height="80" x="0" y="0" maskUnits="userSpaceOnUse" style="mask-type:alpha"><path fill="#fff" d="M0 0H80V80H0V0Z"/></mask><g mask="url(#mask0_212:2)"><mask id="mask1_212:2" width="80" height="80" x="0" y="9" maskUnits="userSpaceOnUse" style="mask-type:alpha"><path fill="#fff" d="M0 9.2583H80V88.9873H0V9.2583Z"/></mask><g mask="url(#mask1_212:2)"><path fill="#0C263D" fill-rule="evenodd" d="M62.5 46.6406H70.833V54.1156H62.5V46.6406Z" clip-rule="evenodd"/><path fill="#061420" fill-rule="evenodd" d="M10.1029 49.6065L35.1309 37.1875C35.8337 36.839 36.6079 36.6586 37.3923 36.6607C38.1768 36.6627 38.95 36.8472 39.6509 37.1995L69.9079 52.4145C70.1853 52.5536 70.4187 52.7667 70.5823 53.0303C70.7459 53.2939 70.8334 53.5977 70.8349 53.9079C70.8365 54.2182 70.7521 54.5228 70.5911 54.788C70.4301 55.0532 70.1989 55.2687 69.9229 55.4105L44.5849 68.4875C43.8584 68.8623 43.0519 69.0555 42.2344 69.0504C41.4169 69.0454 40.6128 68.8423 39.8909 68.4585L10.0609 52.5965C9.78778 52.4517 9.55989 52.2343 9.40237 51.9682C9.24484 51.7022 9.16379 51.3978 9.16813 51.0887C9.17248 50.7795 9.26205 50.4776 9.42698 50.2161C9.59191 49.9546 9.82582 49.7436 10.1029 49.6065V49.6065Z" clip-rule="evenodd"/><path fill="#0C263D" fill-rule="evenodd" d="M41.668 63.3338V67.5138C41.6679 67.6999 41.6219 67.8832 41.534 68.0474C41.4462 68.2116 41.3192 68.3515 41.1643 68.4549C41.0094 68.5582 40.8315 68.6218 40.6462 68.6399C40.4608 68.658 40.2739 68.6301 40.102 68.5588L40.002 68.5118V60.9868C40.4883 61.1573 40.9097 61.4746 41.2081 61.8948C41.5065 62.3149 41.6672 62.8174 41.668 63.3328V63.3338ZM10.001 45.0908L40.001 60.9868V68.5118L10.001 52.6128V52.5938L9.88597 52.5278C9.66573 52.386 9.48459 52.1912 9.35914 51.9613C9.2337 51.7314 9.16797 51.4737 9.16797 51.2118V43.3018L10.001 45.0908Z" clip-rule="evenodd"/><path fill="#0285F6" d="M10.0277 42.1446L35.0557 29.7266C35.7585 29.378 36.5327 29.1976 37.3171 29.1997C38.1016 29.2018 38.8748 29.3863 39.5757 29.7386L69.8327 44.9526C70.1103 45.0916 70.344 45.3047 70.5078 45.5684C70.6716 45.8321 70.7592 46.1361 70.7607 46.4465C70.7623 46.7569 70.6778 47.0617 70.5166 47.327C70.3555 47.5924 70.1239 47.8079 69.8477 47.9496L44.5097 61.0266C43.7831 61.4012 42.9765 61.5942 42.159 61.589C41.3415 61.5837 40.5375 61.3805 39.8157 60.9966L9.98573 45.1366C9.71232 44.9918 9.48419 44.7744 9.32648 44.5083C9.16877 44.2421 9.08762 43.9376 9.09196 43.6282C9.09631 43.3189 9.18598 43.0168 9.3511 42.7552C9.51621 42.4936 9.75036 42.2826 10.0277 42.1456V42.1446Z"/></g><mask id="mask2_212:2" width="80" height="80" x="0" y="0" maskUnits="userSpaceOnUse" style="mask-type:alpha"><path fill="#fff" d="M0 0.136719H80V79.8657H0V0.136719Z"/></mask><g mask="url(#mask2_212:2)"><path fill="#0C263D" fill-rule="evenodd" d="M62.5 37.519H70.833V44.994H62.5V37.519Z" clip-rule="evenodd"/><path fill="#061420" fill-rule="evenodd" d="M10.1029 40.4849L35.1309 28.0659C35.8337 27.7174 36.6079 27.537 37.3923 27.5391C38.1768 27.5412 38.95 27.7256 39.6509 28.0779L69.9079 43.2929C70.1853 43.432 70.4187 43.6451 70.5823 43.9087C70.7459 44.1723 70.8334 44.4761 70.8349 44.7863C70.8365 45.0966 70.7521 45.4012 70.5911 45.6664C70.4301 45.9317 70.1989 46.1471 69.9229 46.2889L44.5849 59.3659C43.8584 59.7407 43.0519 59.9339 42.2344 59.9288C41.4169 59.9238 40.6128 59.7207 39.8909 59.3369L10.0609 43.4749C9.78778 43.3301 9.55989 43.1127 9.40237 42.8467C9.24484 42.5806 9.16379 42.2763 9.16813 41.9671C9.17248 41.658 9.26205 41.356 9.42698 41.0945C9.59191 40.833 9.82582 40.6221 10.1029 40.4849V40.4849Z" clip-rule="evenodd"/><path fill="#0C263D" fill-rule="evenodd" d="M41.668 54.2122V58.3922C41.6679 58.5784 41.6219 58.7617 41.534 58.9258C41.4462 59.09 41.3192 59.2299 41.1643 59.3333C41.0094 59.4366 40.8315 59.5002 40.6462 59.5183C40.4608 59.5364 40.2739 59.5086 40.102 59.4372L40.002 59.3902V51.8652C40.4883 52.0357 40.9097 52.353 41.2081 52.7732C41.5065 53.1934 41.6672 53.6958 41.668 54.2112V54.2122ZM10.001 35.9692L40.001 51.8652V59.3902L10.001 43.4912V43.4722L9.88597 43.4062C9.66573 43.2644 9.48459 43.0697 9.35914 42.8397C9.2337 42.6098 9.16797 42.3521 9.16797 42.0902V34.1802L10.001 35.9692Z" clip-rule="evenodd"/><path fill="#0285F6" d="M10.0277 33.023L35.0557 20.605C35.7585 20.2564 36.5327 20.0761 37.3171 20.0781C38.1016 20.0802 38.8748 20.2647 39.5757 20.617L69.8327 35.831C70.1103 35.97 70.344 36.1831 70.5078 36.4468C70.6716 36.7105 70.7592 37.0145 70.7607 37.3249C70.7623 37.6353 70.6778 37.9401 70.5166 38.2055C70.3555 38.4708 70.1239 38.6863 69.8477 38.828L44.5097 51.905C43.7831 52.2796 42.9765 52.4726 42.159 52.4674C41.3415 52.4622 40.5375 52.2589 39.8157 51.875L9.98573 36.015C9.71232 35.8703 9.48419 35.6528 9.32648 35.3867C9.16877 35.1205 9.08762 34.816 9.09196 34.5067C9.09631 34.1973 9.18598 33.8952 9.3511 33.6336C9.51621 33.372 9.75036 33.161 10.0277 33.024V33.023Z"/></g><mask id="mask3_212:2" width="80" height="81" x="0" y="-10" maskUnits="userSpaceOnUse" style="mask-type:alpha"><path fill="#fff" d="M0 -9.00391H80V70.7251H0V-9.00391Z"/></mask><g mask="url(#mask3_212:2)"><path fill="#0C263D" fill-rule="evenodd" d="M62.5 28.3784H70.833V35.8534H62.5V28.3784Z" clip-rule="evenodd"/><path fill="#061420" fill-rule="evenodd" d="M10.1029 31.3443L35.1309 18.9253C35.8337 18.5767 36.6079 18.3964 37.3923 18.3985C38.1768 18.4005 38.95 18.585 39.6509 18.9373L69.9079 34.1523C70.1853 34.2914 70.4187 34.5045 70.5823 34.7681C70.7459 35.0317 70.8334 35.3355 70.8349 35.6457C70.8365 35.956 70.7521 36.2606 70.5911 36.5258C70.4301 36.791 70.1989 37.0065 69.9229 37.1483L44.5849 50.2253C43.8584 50.6001 43.0519 50.7933 42.2344 50.7882C41.4169 50.7832 40.6128 50.5801 39.8909 50.1963L10.0609 34.3343C9.78778 34.1895 9.55989 33.9721 9.40237 33.706C9.24484 33.44 9.16379 33.1356 9.16813 32.8265C9.17248 32.5173 9.26205 32.2154 9.42698 31.9539C9.59191 31.6924 9.82582 31.4814 10.1029 31.3443Z" clip-rule="evenodd"/><path fill="#0C263D" fill-rule="evenodd" d="M41.668 45.0716V49.2516C41.6679 49.4377 41.6219 49.621 41.534 49.7852C41.4462 49.9494 41.3192 50.0893 41.1643 50.1927C41.0094 50.296 40.8315 50.3596 40.6462 50.3777C40.4608 50.3958 40.2739 50.3679 40.102 50.2966L40.002 50.2495V42.7246C40.4883 42.8951 40.9097 43.2124 41.2081 43.6325C41.5065 44.0527 41.6672 44.5552 41.668 45.0706V45.0716ZM10.001 26.8286L40.001 42.7246V50.2495L10.001 34.3506V34.3315L9.88597 34.2655C9.66573 34.1238 9.48459 33.929 9.35914 33.6991C9.2337 33.4692 9.16797 33.2115 9.16797 32.9495V25.0396L10.001 26.8286Z" clip-rule="evenodd"/><path fill="#0285F6" d="M10.0277 23.8824L35.0557 11.4644C35.7585 11.1158 36.5327 10.9354 37.3171 10.9375C38.1016 10.9396 38.8748 11.1241 39.5757 11.4764L69.8327 26.6904C70.1103 26.8293 70.344 27.0425 70.5078 27.3062C70.6716 27.5699 70.7592 27.8738 70.7607 28.1843C70.7623 28.4947 70.6778 28.7995 70.5166 29.0648C70.3555 29.3302 70.1239 29.5457 69.8477 29.6874L44.5097 42.7644C43.7831 43.139 42.9765 43.332 42.159 43.3268C41.3415 43.3215 40.5375 43.1183 39.8157 42.7344L9.98573 26.8744C9.71232 26.7296 9.48419 26.5122 9.32648 26.2461C9.16877 25.9799 9.08762 25.6754 9.09196 25.366C9.09631 25.0567 9.18598 24.7546 9.3511 24.493C9.51621 24.2313 9.75036 24.0204 10.0277 23.8834V23.8824Z"/></g></g></svg>