<svg width="80" height="80" viewBox="0 0 80 80" fill="none" xmlns="http://www.w3.org/2000/svg">
<mask id="mask0_210:61" style="mask-type:alpha" maskUnits="userSpaceOnUse" x="0" y="0" width="80" height="80">
<path d="M0 0H80V80H0V0Z" fill="white"/>
</mask>
<g mask="url(#mask0_210:61)">
<path fill-rule="evenodd" clip-rule="evenodd" d="M62.5 37.5H70.833V45H62.5V37.5Z" fill="#0C263D"/>
<path fill-rule="evenodd" clip-rule="evenodd" d="M10.1037 40.4887L35.1317 28.0287C35.8341 27.6789 36.6085 27.4979 37.3931 27.5C38.1778 27.5021 38.9512 27.6872 39.6517 28.0407L69.9087 43.3067C70.186 43.4472 70.419 43.6615 70.5824 43.9259C70.7457 44.1904 70.833 44.4948 70.8345 44.8056C70.8361 45.1164 70.7519 45.4216 70.5912 45.6877C70.4305 45.9538 70.1995 46.1704 69.9237 46.3137L44.5857 59.4337C43.8596 59.8098 43.053 60.0039 42.2353 59.999C41.4175 59.9941 40.6133 59.7905 39.8917 59.4057L10.0617 43.4897C9.78869 43.3434 9.56112 43.1248 9.40387 42.858C9.24663 42.5911 9.16575 42.2861 9.17009 41.9764C9.17442 41.6667 9.2638 41.3641 9.42845 41.1017C9.59311 40.8393 9.8267 40.6273 10.1037 40.4887V40.4887Z" fill="#061420"/>
<path fill-rule="evenodd" clip-rule="evenodd" d="M41.6699 54.2613V58.4543C41.67 58.6406 41.6242 58.8241 41.5364 58.9886C41.4487 59.153 41.3219 59.2932 41.167 59.397C41.0122 59.5007 40.8342 59.5646 40.6488 59.5832C40.4634 59.6017 40.2762 59.5743 40.1039 59.5033L40.0039 59.4563V51.9053C40.4912 52.0774 40.9131 52.3964 41.2115 52.8184C41.5099 53.2404 41.6701 53.7445 41.6699 54.2613ZM10.0029 35.9553L40.0029 51.9053V59.4553L10.0029 43.5033V43.4833L9.88792 43.4173C9.6675 43.2748 9.48629 43.0793 9.36087 42.8487C9.23545 42.6181 9.1698 42.3598 9.16992 42.0973V34.1603L10.0029 35.9553V35.9553Z" fill="#0C263D"/>
<path d="M10.1037 32.9887L35.1317 20.5287C35.8341 20.1789 36.6085 19.9979 37.3931 20C38.1778 20.0021 38.9512 20.1872 39.6517 20.5407L69.9087 35.8067C70.186 35.9472 70.419 36.1615 70.5824 36.4259C70.7457 36.6904 70.833 36.9948 70.8345 37.3056C70.8361 37.6164 70.7519 37.9216 70.5912 38.1877C70.4305 38.4538 70.1995 38.6703 69.9237 38.8137L44.5857 51.9337C43.8596 52.3098 43.053 52.5039 42.2353 52.499C41.4175 52.4941 40.6133 52.2905 39.8917 51.9057L10.0617 35.9897C9.78869 35.8434 9.56112 35.6248 9.40387 35.358C9.24663 35.0911 9.16575 34.7861 9.17009 34.4764C9.17442 34.1667 9.2638 33.8641 9.42845 33.6017C9.59311 33.3393 9.8267 33.1273 10.1037 32.9887V32.9887Z" fill="#0285F6"/>
</g>
</svg>
