<svg width="80" height="80" viewBox="0 0 80 80" fill="none" xmlns="http://www.w3.org/2000/svg">
<mask id="mask0_208:27" style="mask-type:alpha" maskUnits="userSpaceOnUse" x="0" y="0" width="80" height="80">
<path d="M0 0H80V80H0V0Z" fill="white"/>
</mask>
<g mask="url(#mask0_208:27)">
<mask id="mask1_208:27" style="mask-type:alpha" maskUnits="userSpaceOnUse" x="0" y="4" width="80" height="80">
<path d="M0 4.15002H80V84H0V4.15002Z" fill="white"/>
</mask>
<g mask="url(#mask1_208:27)">
<path fill-rule="evenodd" clip-rule="evenodd" d="M62.5 41.58H70.833V49.066H62.5V41.58Z" fill="#0C263D"/>
<path fill-rule="evenodd" clip-rule="evenodd" d="M10.102 44.5631L35.13 32.1281C35.8326 31.7789 36.6068 31.5983 37.3914 31.6004C38.1759 31.6024 38.9492 31.7872 39.65 32.1401L69.907 47.3761C70.1841 47.5159 70.4173 47.7296 70.5807 47.9936C70.744 48.2575 70.8313 48.5615 70.8329 48.872C70.8344 49.1824 70.7502 49.4872 70.5894 49.7528C70.4287 50.0184 70.1977 50.2344 69.922 50.3771L44.584 63.4741C43.8576 63.8494 43.051 64.0429 42.2334 64.0378C41.4158 64.0328 40.6116 63.8294 39.89 63.4451L10.06 47.5591C9.78702 47.4134 9.55942 47.1955 9.40212 46.9291C9.24483 46.6627 9.16392 46.3581 9.16826 46.0488C9.17259 45.7394 9.26202 45.4372 9.42672 45.1753C9.59142 44.9135 9.82504 44.702 10.102 44.5641V44.5631Z" fill="#061420"/>
<path fill-rule="evenodd" clip-rule="evenodd" d="M41.667 58.3171V62.5021C41.667 62.6883 41.6211 62.8717 41.5333 63.036C41.4455 63.2003 41.3186 63.3404 41.1637 63.4439C41.0089 63.5475 40.8309 63.6112 40.6455 63.6296C40.4601 63.6479 40.2731 63.6202 40.101 63.5491L40.001 63.5021V55.965C40.488 56.1364 40.9098 56.4547 41.2082 56.876C41.5066 57.2973 41.6669 57.8008 41.667 58.3171ZM9.99999 40.0451L40 55.965V63.5021L9.99999 47.5791V47.5591L9.88499 47.4931C9.6648 47.351 9.48372 47.156 9.35829 46.926C9.23287 46.6959 9.1671 46.4381 9.16699 46.1761V38.2531L9.99999 40.0451Z" fill="#0C263D"/>
<path d="M10.102 37.078L35.13 24.641C35.8326 24.2919 36.6068 24.1112 37.3914 24.1133C38.1759 24.1154 38.9492 24.3002 39.65 24.653L69.907 39.89C70.1841 40.0298 70.4173 40.2435 70.5807 40.5075C70.744 40.7715 70.8313 41.0755 70.8329 41.3859C70.8344 41.6963 70.7502 42.0012 70.5894 42.2668C70.4287 42.5324 70.1977 42.7484 69.922 42.891L44.584 55.988C43.8576 56.3634 43.051 56.5568 42.2334 56.5518C41.4158 56.5467 40.6116 56.3433 39.89 55.959L10.06 40.073C9.78702 39.9274 9.55942 39.7094 9.40212 39.443C9.24483 39.1766 9.16392 38.872 9.16826 38.5627C9.17259 38.2533 9.26202 37.9512 9.42672 37.6893C9.59142 37.4274 9.82504 37.2159 10.102 37.078Z" fill="#0285F6"/>
</g>
<mask id="mask2_208:27" style="mask-type:alpha" maskUnits="userSpaceOnUse" x="0" y="-5" width="80" height="80">
<path d="M0 -5H80V74.85H0V-5Z" fill="white"/>
</mask>
<g mask="url(#mask2_208:27)">
<path fill-rule="evenodd" clip-rule="evenodd" d="M62.5 32.4299H70.833V39.9159H62.5V32.4299Z" fill="#0C263D"/>
<path fill-rule="evenodd" clip-rule="evenodd" d="M10.102 35.413L35.13 22.978C35.8326 22.6289 36.6068 22.4483 37.3914 22.4503C38.1759 22.4524 38.9492 22.6372 39.65 22.99L69.907 38.226C70.1841 38.3659 70.4173 38.5796 70.5807 38.8436C70.744 39.1075 70.8313 39.4115 70.8329 39.7219C70.8344 40.0324 70.7502 40.3372 70.5894 40.6028C70.4287 40.8684 70.1977 41.0844 69.922 41.227L44.584 54.324C43.8576 54.6994 43.051 54.8929 42.2334 54.8878C41.4158 54.8828 40.6116 54.6793 39.89 54.295L10.06 38.409C9.78702 38.2634 9.55942 38.0455 9.40212 37.779C9.24483 37.5126 9.16392 37.2081 9.16826 36.8987C9.17259 36.5894 9.26202 36.2872 9.42672 36.0253C9.59142 35.7634 9.82504 35.5509 10.102 35.413Z" fill="#061420"/>
<path fill-rule="evenodd" clip-rule="evenodd" d="M41.667 49.167V53.352C41.667 53.5383 41.6211 53.7217 41.5333 53.886C41.4455 54.0503 41.3186 54.1904 41.1637 54.2939C41.0089 54.3974 40.8309 54.4612 40.6455 54.4795C40.4601 54.4979 40.2731 54.4702 40.101 54.399L40.001 54.352V46.815C40.488 46.9864 40.9098 47.3047 41.2082 47.726C41.5066 48.1473 41.6669 48.6508 41.667 49.167ZM9.99999 30.895L40.001 46.815V54.352L9.99999 38.429V38.409L9.88499 38.343C9.6648 38.201 9.48372 38.006 9.35829 37.776C9.23287 37.5459 9.1671 37.2881 9.16699 37.026V29.103L9.99999 30.895Z" fill="#0C263D"/>
<path d="M10.102 27.928L35.13 15.491C35.8326 15.1419 36.6068 14.9612 37.3914 14.9633C38.1759 14.9654 38.9492 15.1501 39.65 15.503L69.907 30.74C70.1841 30.8798 70.4173 31.0935 70.5807 31.3575C70.744 31.6215 70.8313 31.9254 70.8329 32.2359C70.8344 32.5463 70.7502 32.8511 70.5894 33.1167C70.4287 33.3823 70.1977 33.5984 69.922 33.741L44.584 46.838C43.8576 47.2133 43.051 47.4068 42.2334 47.4017C41.4158 47.3967 40.6116 47.1933 39.89 46.809L10.06 30.923C9.78702 30.7773 9.55942 30.5594 9.40212 30.293C9.24483 30.0266 9.16392 29.722 9.16826 29.4127C9.17259 29.1033 9.26202 28.8011 9.42672 28.5393C9.59142 28.2774 9.82504 28.0659 10.102 27.928Z" fill="#0285F6"/>
</g>
</g>
</svg>
